<svg id="visual" viewBox="0 0 675 900" width="675" height="900" xmlns="http://www.w3.org/2000/svg" xmlns:xlink="http://www.w3.org/1999/xlink" version="1.1"><rect x="0" y="0" width="675" height="900" fill="#111111"></rect><defs><linearGradient id="grad1_0" x1="0%" y1="100%" x2="100%" y2="0%"><stop offset="30%" stop-color="#672365" stop-opacity="1"></stop><stop offset="70%" stop-color="#672365" stop-opacity="1"></stop></linearGradient></defs><defs><linearGradient id="grad1_1" x1="0%" y1="100%" x2="100%" y2="0%"><stop offset="30%" stop-color="#672365" stop-opacity="1"></stop><stop offset="70%" stop-color="#3b1d39" stop-opacity="1"></stop></linearGradient></defs><defs><linearGradient id="grad1_2" x1="0%" y1="100%" x2="100%" y2="0%"><stop offset="30%" stop-color="#111111" stop-opacity="1"></stop><stop offset="70%" stop-color="#3b1d39" stop-opacity="1"></stop></linearGradient></defs><defs><linearGradient id="grad2_0" x1="0%" y1="100%" x2="100%" y2="0%"><stop offset="30%" stop-color="#672365" stop-opacity="1"></stop><stop offset="70%" stop-color="#672365" stop-opacity="1"></stop></linearGradient></defs><defs><linearGradient id="grad2_1" x1="0%" y1="100%" x2="100%" y2="0%"><stop offset="30%" stop-color="#3b1d39" stop-opacity="1"></stop><stop offset="70%" stop-color="#672365" stop-opacity="1"></stop></linearGradient></defs><defs><linearGradient id="grad2_2" x1="0%" y1="100%" x2="100%" y2="0%"><stop offset="30%" stop-color="#3b1d39" stop-opacity="1"></stop><stop offset="70%" stop-color="#111111" stop-opacity="1"></stop></linearGradient></defs><g transform="translate(675, 900)"><path d="M-562.5 0C-545.3 -47.6 -528 -95.1 -506.1 -135.6C-484.3 -176.1 -457.7 -209.6 -443.4 -256C-429.1 -302.4 -427 -361.9 -397.7 -397.7C-368.5 -433.6 -312.2 -445.9 -264 -457.3C-215.8 -468.6 -175.7 -479.1 -133 -496.5C-90.4 -513.9 -45.2 -538.2 0 -562.5L0 0Z" fill="#261825"></path><path d="M-375 0C-363.5 -31.7 -352 -63.4 -337.4 -90.4C-322.8 -117.4 -305.2 -139.7 -295.6 -170.7C-286.1 -201.6 -284.6 -241.3 -265.2 -265.2C-245.7 -289.1 -208.1 -297.3 -176 -304.8C-143.9 -312.4 -117.1 -319.4 -88.7 -331C-60.3 -342.6 -30.1 -358.8 0 -375L0 0Z" fill="#50214f"></path><path d="M-187.5 0C-181.8 -15.9 -176 -31.7 -168.7 -45.2C-161.4 -58.7 -152.6 -69.9 -147.8 -85.3C-143 -100.8 -142.3 -120.6 -132.6 -132.6C-122.8 -144.5 -104.1 -148.6 -88 -152.4C-71.9 -156.2 -58.6 -159.7 -44.3 -165.5C-30.1 -171.3 -15.1 -179.4 0 -187.5L0 0Z" fill="#672365"></path></g><g transform="translate(0, 0)"><path d="M562.5 0C558.1 48.4 553.6 96.7 543.3 145.6C533.1 194.4 517 243.8 485.8 280.5C454.7 317.2 408.5 341.3 369.1 369.1C329.7 396.9 297 428.3 258.5 447.7C220 467.1 175.8 474.5 131.7 491.7C87.7 508.8 43.8 535.6 0 562.5L0 0Z" fill="#261825"></path><path d="M375 0C372 32.2 369.1 64.5 362.2 97.1C355.4 129.6 344.6 162.5 323.9 187C303.1 211.5 272.4 227.6 246.1 246.1C219.8 264.6 198 285.5 172.3 298.5C146.7 311.4 117.2 316.4 87.8 327.8C58.5 339.2 29.2 357.1 0 375L0 0Z" fill="#50214f"></path><path d="M187.5 0C186 16.1 184.5 32.2 181.1 48.5C177.7 64.8 172.3 81.3 161.9 93.5C151.6 105.7 136.2 113.8 123 123C109.9 132.3 99 142.8 86.2 149.2C73.3 155.7 58.6 158.2 43.9 163.9C29.2 169.6 14.6 178.5 0 187.5L0 0Z" fill="#672365"></path></g></svg>