<svg id="visual" viewBox="0 0 1080 500" xmlns="http://www.w3.org/2000/svg" xmlns:xlink="http://www.w3.org/1999/xlink" version="1.1"><rect x="0" y="0" width="1080" height="500" fill="#000000"></rect><path d="M0 325L16.3 320.7C32.7 316.3 65.3 307.7 98 302.7C130.7 297.7 163.3 296.3 196.2 299.3C229 302.3 262 309.7 294.8 310.8C327.7 312 360.3 307 393 315.7C425.7 324.3 458.3 346.7 491 347.2C523.7 347.7 556.3 326.3 589 320.5C621.7 314.7 654.3 324.3 687 333.8C719.7 343.3 752.3 352.7 785.2 353.8C818 355 851 348 883.8 340.3C916.7 332.7 949.3 324.3 982 324.8C1014.7 325.3 1047.3 334.7 1063.7 339.3L1080 344L1080 501L1063.7 501C1047.3 501 1014.7 501 982 501C949.3 501 916.7 501 883.8 501C851 501 818 501 785.2 501C752.3 501 719.7 501 687 501C654.3 501 621.7 501 589 501C556.3 501 523.7 501 491 501C458.3 501 425.7 501 393 501C360.3 501 327.7 501 294.8 501C262 501 229 501 196.2 501C163.3 501 130.7 501 98 501C65.3 501 32.7 501 16.3 501L0 501Z" fill="#000000"></path><path d="M0 386L16.3 382.3C32.7 378.7 65.3 371.3 98 369.7C130.7 368 163.3 372 196.2 372.7C229 373.3 262 370.7 294.8 370C327.7 369.3 360.3 370.7 393 367.5C425.7 364.3 458.3 356.7 491 358.8C523.7 361 556.3 373 589 370.8C621.7 368.7 654.3 352.3 687 351.5C719.7 350.7 752.3 365.3 785.2 370.3C818 375.3 851 370.7 883.8 368C916.7 365.3 949.3 364.7 982 363.5C1014.7 362.3 1047.3 360.7 1063.7 359.8L1080 359L1080 501L1063.7 501C1047.3 501 1014.7 501 982 501C949.3 501 916.7 501 883.8 501C851 501 818 501 785.2 501C752.3 501 719.7 501 687 501C654.3 501 621.7 501 589 501C556.3 501 523.7 501 491 501C458.3 501 425.7 501 393 501C360.3 501 327.7 501 294.8 501C262 501 229 501 196.2 501C163.3 501 130.7 501 98 501C65.3 501 32.7 501 16.3 501L0 501Z" fill="#570028"></path><path d="M0 383L16.3 390.2C32.7 397.3 65.3 411.7 98 411.2C130.7 410.7 163.3 395.3 196.2 393.5C229 391.7 262 403.3 294.8 406C327.7 408.7 360.3 402.3 393 398.5C425.7 394.7 458.3 393.3 491 395.5C523.7 397.7 556.3 403.3 589 405.2C621.7 407 654.3 405 687 400.8C719.7 396.7 752.3 390.3 785.2 386.8C818 383.3 851 382.7 883.8 383.2C916.7 383.7 949.3 385.3 982 391C1014.7 396.7 1047.3 406.3 1063.7 411.2L1080 416L1080 501L1063.7 501C1047.3 501 1014.7 501 982 501C949.3 501 916.7 501 883.8 501C851 501 818 501 785.2 501C752.3 501 719.7 501 687 501C654.3 501 621.7 501 589 501C556.3 501 523.7 501 491 501C458.3 501 425.7 501 393 501C360.3 501 327.7 501 294.8 501C262 501 229 501 196.2 501C163.3 501 130.7 501 98 501C65.3 501 32.7 501 16.3 501L0 501Z" fill="#7b0644"></path><path d="M0 429L16.3 429C32.7 429 65.3 429 98 428.5C130.7 428 163.3 427 196.2 429.8C229 432.7 262 439.3 294.8 440.5C327.7 441.7 360.3 437.3 393 433.5C425.7 429.7 458.3 426.3 491 426.7C523.7 427 556.3 431 589 432.2C621.7 433.3 654.3 431.7 687 430C719.7 428.3 752.3 426.7 785.2 425.5C818 424.3 851 423.7 883.8 425.7C916.7 427.7 949.3 432.3 982 433.8C1014.7 435.3 1047.3 433.7 1063.7 432.8L1080 432L1080 501L1063.7 501C1047.3 501 1014.7 501 982 501C949.3 501 916.7 501 883.8 501C851 501 818 501 785.2 501C752.3 501 719.7 501 687 501C654.3 501 621.7 501 589 501C556.3 501 523.7 501 491 501C458.3 501 425.7 501 393 501C360.3 501 327.7 501 294.8 501C262 501 229 501 196.2 501C163.3 501 130.7 501 98 501C65.3 501 32.7 501 16.3 501L0 501Z" fill="#9c1660"></path></svg>