<svg xmlns:svg="http://www.w3.org/2000/svg" viewBox="-0 256 1024 512" version="1.1"
      style="width: 100%; height: 100vh">
      <g class="companytext" fill="#32306b" fill-rule="evenodd" stroke="#32306b" stroke-width="2" aria-label="P"
        transform="translate(-1.1368683772161603e-13 395.851) translate(263.93320000000006 37.094) scale(1.25) translate(-331.66756 53.64)">
        <path class="el fill"
          d="M115.22217,77.20288c-3.39844-3.50684-8.36035-5.28516-14.75391-5.28516H80.09033v56.16455h11.30469 V82.64673h8.4248c2.78711,0,5.01855,0.66211,6.44434,1.92236c1.41211,1.23145,2.125,3.11084,2.125,5.56592 c0,2.37646-0.69141,4.21973-2.05273,5.47998c-1.59863,1.47607-4.12598,2.2251-7.52441,2.2251h-1.89874v10.72852h2.47491 c2.92285,0,5.62305-0.35254,8.01367-1.04395c2.5498-0.7417,4.75977-1.87207,6.58203-3.36279 c1.92188-1.57666,3.40527-3.5498,4.40625-5.86816c1.00879-2.34033,1.51953-5.0332,1.51953-8.01465 C119.90967,84.89331,118.28955,80.37134,115.22217,77.20288z"
          transform="translate(251.57723 -125.55772)"></path>
        <path class="el fill"
          d="M121.90405,128.08252h-13.65918l-13.37109-19.27637V97.83984h2.16016 c3.40527,0,5.9541-0.74902,7.56738-2.23242c1.38281-1.27441,2.08105-3.11084,2.08105-5.47266 c0-2.4624-0.71973-4.33447-2.13867-5.55859c-1.4541-1.26025-3.75879-1.92969-6.64648-1.92969h-8.49609v45.43604H78.09595V71.91748 h20.66553c3.16113,0,6.0127,0.45361,8.48926,1.34619c2.44141,0.88574,4.5293,2.21094,6.20703,3.93164 c3.10352,3.18994,4.74512,7.71191,4.74512,13.0835c0,4.81738-1.33203,8.79932-3.95996,11.83789 c-1.8291,2.10986-4.24121,3.72266-7.2002,4.81006L121.90405,128.08252z"
          transform="translate(297.72786 -125.55748)"></path>
        <path class="el fill"
          d="M88.93994,126.17456c-3.38477-1.43311-6.42285-3.47803-9.02979-6.08447 c-2.60645-2.60693-4.65137-5.64551-6.08447-9.02979c-1.4834-3.50684-2.23242-7.22949-2.23242-11.06006 s0.74902-7.55371,2.23242-11.06006c1.43311-3.38428,3.47803-6.42334,6.08447-9.02979 c2.60693-2.60645,5.64502-4.65137,9.02979-6.08447c3.50684-1.4834,7.22949-2.23242,11.05957-2.23242 c3.83105,0,7.55371,0.74902,11.06055,2.23242c3.38477,1.43311,6.42285,3.47803,9.0293,6.08447 c2.60742,2.60645,4.65234,5.64551,6.08496,9.02979c1.4834,3.50635,2.23242,7.22949,2.23242,11.06006 s-0.74902,7.55322-2.23242,11.06006c-1.43262,3.38428-3.47754,6.42285-6.08496,9.02979 c-2.60645,2.60645-5.64453,4.65137-9.0293,6.08447c-3.50684,1.4834-7.22949,2.23193-11.06055,2.23193 C96.16943,128.40649,92.44678,127.65796,88.93994,126.17456z M87.90283,87.9104c-3.2334,3.23291-5.01172,7.52441-5.01172,12.09717 c0,4.57227,1.77832,8.86377,5.01172,12.09668c3.2334,3.2334,7.52441,5.01172,12.09668,5.01172 c4.57324,0,8.86426-1.77832,12.09766-5.01172c3.23242-3.23291,5.01172-7.52441,5.01172-12.09668 c0-4.57275-1.7793-8.86426-5.01172-12.09717c-3.2334-3.23291-7.53223-5.01172-12.09766-5.01172 C95.43506,82.89868,91.13623,84.67749,87.90283,87.9104z"
          transform="translate(346.28868 -125.5935)"></path>
        <path class="el fill"
          d="M80.97266,119.83057l-1.51953-1.62793l7.43848-8.89941l1.92188,2.41211 c1.50488,1.88672,3.4707,3.43457,5.6748,4.47168c2.07324,0.979,4.3125,1.49023,6.47266,1.49023 c2.5498,0,4.72363-0.56152,6.12109-1.57666c1.25977-0.91455,1.87207-2.13867,1.87207-3.75146 c0-1.75732-0.54004-2.84424-1.91504-3.87402c-1.58496-1.18115-4.14844-2.146-7.12207-3.26904 c-0.25195-0.09375-0.51074-0.19434-0.77734-0.29541c-4.08301-1.51904-8.00684-3.08154-11.1543-5.5874 c-1.82861-1.45459-3.18213-3.06055-4.14014-4.90381c-1.06543-2.04492-1.60547-4.37061-1.60547-6.9126 c0-4.42822,1.91553-8.52539,5.38623-11.53564c3.37012-2.91602,7.89844-4.52148,12.75977-4.52148 c6.27832,0,12.40625,2.26074,17.71289,6.53076l1.91602,1.54834l-6.90625,8.98633l-2.01563-1.65625 c-3.5498-2.93066-7.45313-4.6084-10.70703-4.6084c-3.02441,0-6.56738,1.31055-6.625,5.00439 c-0.02148,1.64893,0.77051,2.54883,1.97266,3.3916c1.72168,1.20947,4.45703,2.25342,7.35254,3.3623l0.02832,0.00732 c0.4541,0.18018,0.90723,0.36035,1.36133,0.53271c4.09668,1.60596,7.9707,3.11816,10.9082,5.5376 c3.4707,2.86572,5.16309,6.63867,5.16309,11.54248c0,2.65723-0.56836,5.12695-1.69238,7.34424 c-1.05859,2.07422-2.57031,3.88184-4.51465,5.37207c-3.54199,2.70703-8.31641,4.20508-13.4502,4.20508 C93.2998,128.55029,86.229,125.45459,80.97266,119.83057z"
          transform="translate(395.69468 -125.59373)"></path>
        <path class="el fill"
          d="M94.23975,82.64648H78.97412v-10.729h42.05176v10.729h-15.48145v45.43604H94.23975V82.64648z"
          transform="translate(436.95494 -125.55748)"></path>
        <polygon class="el fill"
          points="104.82788,71.91748 95.08569,71.91748 73.80786,128.08252 85.77515,128.08252 99.93921,89.14844 114.22534,128.08252 126.19214,128.08252 "
          transform="translate(476.89045 -125.55748)"></polygon>
        <polygon class="dot" points="100.03819,128.08252 91.09854,114.24284 108.90146,114.24284 "
          transform="translate(476.89045 -125.55748)" fill="#d20a5b" stroke="#d20a5b" stroke-width="0"></polygon>
        <path class="el fill"
          d="M88.90356,126.25342c-3.39111-1.43262-6.43701-3.49219-9.05811-6.10547 c-2.60693-2.61426-4.65869-5.66016-6.09912-9.05859c-1.4834-3.51416-2.23926-7.24414-2.23926-11.08936 s0.75586-7.5752,2.23926-11.09619c1.43311-3.3916,3.49219-6.4375,6.10645-9.05811c2.61377-2.61426,5.65967-4.66602,9.05811-6.10645 c3.51465-1.4834,7.24414-2.23193,11.08887-2.23193c4.55859,0,9.10156,1.10156,13.12012,3.19678 c3.8877,2.02344,7.31543,4.96143,9.90039,8.51123l-9.12988,6.66797c-1.5625-2.146-3.63672-3.92432-5.98438-5.14111 c-2.45508-1.2749-5.11914-1.92285-7.91309-1.92285c-4.59375,0-8.90723,1.78564-12.15479,5.0332s-5.0332,7.56055-5.0332,12.15479 c0,4.59375,1.78564,8.90723,5.0332,12.1543c3.24756,3.24805,7.56104,5.0332,12.15479,5.0332s8.90723-1.78516,12.1543-5.0332 c1.86523-1.86523,3.24805-4.08252,4.08984-6.50195h-16.2373V94.35498h28.49316v5.65234c0,3.84521-0.75586,7.5752-2.23926,11.0957 c-1.43359,3.3916-3.49219,6.4375-6.10645,9.05859c-2.61328,2.62109-5.65918,4.66602-9.05859,6.10645 c-3.51367,1.46875-7.24316,2.22461-11.08887,2.22461C96.15503,128.49268,92.42554,127.73682,88.90356,126.25342z"
          transform="translate(527.69224 -125.50732)"></path>
        <path class="el fill"
          d="M81.8186,128.08252h36.36279v-10.51367H81.8186V128.08252z M81.8186,105.47217h36.36279v-10.729H81.8186 V105.47217z M81.8186,71.91748v10.729h36.36279v-10.729H81.8186z"
          transform="translate(575.39584 -125.55748)"></path>
      </g>
    </svg>